# xmcd
#
# Track frame offsets:
#	150
#	12450
#	32465
#	45638
#	63465
#	76075
#	97379
#	112100
#	125035
#	144611
#	162550
#	177228
#	191031
#	205670
#	223356
#	240509
#	255984
#	273973
#
# Disc length: 3869 seconds
#
# Revision: 1
# Processed by: cddbd v1.5.2PL0 Copyright (c) Steve Scherf et al.
# Submitted via: audiograbber 1.83.01
#
DISCID=0c0f1b12
DTITLE=Various Artist - STC  VOL 1
DYEAR=1900
DGENRE=Country
TTITLE0=Patsy Cline - Crazy
TTITLE1=Trisha Yearwood - How Do I Live
TTITLE2=Bobby Helms - My Special Angel
TTITLE3=Bobby Goldsboro - Honey
TTITLE4=Charley Pride - Crystal Chandelier
TTITLE5=John Dever - Back Home Again
TTITLE6=Joe Diffie - Prop Me Up Beside The Jukebox (Remix)
TTITLE7=Good Brothers - Alberta Bound
TTITLE8=Kenny Rodgers - Through The Years
TTITLE9=Vince Gill - Look At Us
TTITLE10=Mark Wills - I Do (Cherish You)
TTITLE11=Dwight Yoakam - Guitars Cadillacs
TTITLE12=Faith Hill - This Kiss
TTITLE13=Alan Jackson - I'll Go On Loving You
TTITLE14=Collin Raye - On The Verge
TTITLE15=Paul Brandt - I Meant To Do That
TTITLE16=Trace Adkins - This Ain't No Thinkin' Thing
TTITLE17=Alabama - Feels So Right
EXTD=
EXTT0=
EXTT1=
EXTT2=
EXTT3=
EXTT4=
EXTT5=
EXTT6=
EXTT7=
EXTT8=
EXTT9=
EXTT10=
EXTT11=
EXTT12=
EXTT13=
EXTT14=
EXTT15=
EXTT16=
EXTT17=
PLAYORDER=
